<svg width="72" height="18" viewBox="0 0 72 18" fill="none" xmlns="http://www.w3.org/2000/svg">
<g clip-path="url(#clip0_2032_966)">
<path d="M6.39182 4.67477C6.25659 4.67477 6.12137 4.65794 6.00305 4.60745C5.58047 4.47282 5.27622 4.10256 5.12409 3.61451C4.98886 3.16011 5.00577 2.63839 5.1917 2.1335C5.36073 1.62861 5.66499 1.19104 6.05376 0.921764C6.45943 0.618831 6.94962 0.517853 7.35529 0.66932C7.77787 0.803957 8.09902 1.17421 8.23425 1.66227C8.36947 2.11667 8.35257 2.63839 8.16664 3.14328C7.99761 3.64816 7.69335 4.08573 7.30458 4.37184C7.01723 4.55696 6.69607 4.67477 6.39182 4.67477Z" fill="#666666"/>
<path d="M15.773 7.35065C15.1138 7.35065 14.5222 6.72796 14.3531 5.83599C14.1841 4.8767 14.6067 4.01839 15.3335 3.88375C15.6885 3.81643 16.0773 3.95107 16.3815 4.254C16.6689 4.5401 16.8548 4.92719 16.9393 5.36476C17.0238 5.80233 16.9731 6.2399 16.8041 6.59332C16.6182 6.9804 16.3139 7.23285 15.9589 7.30016C15.8913 7.33382 15.8406 7.35065 15.773 7.35065Z" fill="#666666"/>
<path d="M6.83128 9.20192C6.20587 10.0939 5.8002 10.9859 5.44523 11.9115C4.93814 13.2579 4.56627 14.6716 3.82254 15.9169C3.46758 16.5228 3.01119 17.0445 2.28436 17.2465C1.23637 17.4989 0.526447 17.0277 0.32361 15.9674C0.10387 14.8398 0.289804 13.7459 0.54335 12.6688C1.08425 10.279 1.9125 8.00702 3.45067 6.07161C4.58318 4.65792 6.12135 4.77573 6.98341 6.35771C7.20315 6.76163 7.40599 6.92992 7.89617 6.87943C8.84274 6.77846 9.53577 7.317 10.0598 8.04068C10.719 8.96631 11.057 10.0771 11.5472 11.0868C11.9867 11.9956 12.3586 12.9213 12.8657 13.7964C12.9333 13.8974 12.9671 14.0657 13.1192 14.0489C13.2713 14.032 13.2713 13.8637 13.3051 13.7459C13.5249 12.9381 13.7446 12.1303 13.9475 11.3056C14.1672 10.3968 14.4546 9.52169 14.9786 8.73069C15.3166 8.19214 15.773 7.82189 16.466 7.85555C17.2267 7.90604 17.6323 8.3941 17.8859 9.05046C18.4437 10.5651 18.3423 12.0966 18.0042 13.6281C17.7676 14.6716 17.3281 15.6308 16.652 16.4723C15.8068 17.4989 14.8095 17.6672 13.7108 16.9267C13.4066 16.7248 13.2206 16.7079 12.9164 16.9436C11.9529 17.6841 10.8542 17.4989 10.026 16.4723C8.82584 15.0586 8.18353 13.3588 7.59192 11.659C7.32147 10.8849 7.10173 10.0939 6.83128 9.20192ZM1.43921 14.234C1.42231 14.4023 1.42231 14.5537 1.43921 14.722C1.43921 14.8567 1.45611 14.9913 1.50682 15.1091C1.59134 15.2774 1.77727 15.3952 1.98011 15.3952C2.38578 15.4121 2.62242 15.0586 2.82526 14.7725C3.11261 14.3518 3.31545 13.8806 3.50138 13.3925C4.22821 11.5244 4.85363 9.60583 6.00303 7.9397C6.10445 7.78823 6.10445 7.63677 6.03684 7.46847C5.74949 6.64382 5.05646 6.45869 4.41415 7.06456C3.89015 7.55262 3.53519 8.19214 3.19713 8.81484C2.70694 9.74047 2.30127 10.7166 1.99701 11.7264C1.72656 12.5342 1.48992 13.3757 1.43921 14.234ZM17.0238 11.6759C17.0407 11.07 16.9562 10.481 16.7872 9.89194C16.7365 9.72364 16.6689 9.52169 16.466 9.4712C16.2463 9.42071 16.1449 9.60583 16.0265 9.7573C15.7392 10.1276 15.5533 10.5483 15.418 10.969C14.9955 12.3154 14.5898 13.6618 14.1672 14.9913C13.9813 15.5972 14.1503 15.8665 14.7926 15.9169C15.4856 15.9843 15.9927 15.6645 16.3308 14.8398C16.7872 13.8469 17.0238 12.7866 17.0238 11.6759ZM11.767 15.7991C11.9698 15.7991 12.1557 15.7318 12.291 15.5635C12.4431 15.3616 12.2741 15.2269 12.1895 15.0755C11.4627 14.0489 10.9218 12.9044 10.4147 11.7432C10.026 10.8512 9.62029 9.97609 9.19771 9.10094C9.04558 8.76435 8.84274 8.46142 8.52159 8.25946C8.35256 8.15848 8.16662 8.04068 7.96379 8.19214C7.76095 8.34361 7.89617 8.52874 7.94688 8.69703C8.36946 10.0434 8.84274 11.3561 9.38364 12.652C9.7048 13.4262 10.026 14.2003 10.5161 14.9072C10.8035 15.3447 11.1923 15.6982 11.767 15.7991Z" fill="#666666"/>
<path d="M24.0217 15.816C23.9203 16.4387 23.7174 16.7584 23.3456 16.7584C22.8554 16.7584 22.6525 16.3377 22.6525 15.0923C22.6525 13.9479 22.8892 13.4598 23.3456 13.4598C23.6836 13.4598 23.8696 13.7459 23.971 14.3181L24.664 14.2508C24.5457 13.342 24.2076 12.8035 23.3287 12.8035C22.2638 12.8035 21.875 13.7964 21.875 15.0923C21.875 16.5396 22.23 17.4148 23.3118 17.4148C24.14 17.4148 24.5626 16.8931 24.6978 15.8833L24.0217 15.816ZM28.0615 17.3475V12.8539H27.3178V14.6884H26.0331V12.8539H25.2894V17.3643H26.0331V15.3616H27.3178V17.3643H28.0615V17.3475ZM29.6166 12.8539H28.8729V17.3643H29.6166V12.8539ZM32.676 17.3475V16.6743H31.1548V12.8539H30.411V17.3643C30.411 17.3475 32.676 17.3475 32.676 17.3475ZM34.1466 17.3475C35.482 17.3475 35.989 16.5228 35.989 15.0418C35.989 13.4598 35.4143 12.8371 34.1635 12.8371H33.1324V17.3475H34.1466ZM33.8931 16.6574V13.544H34.2311C34.8903 13.544 35.2284 13.9142 35.2284 15.0586C35.2284 16.203 34.9242 16.6574 34.2142 16.6574H33.8931ZM39.3866 17.3475L38.5921 15.1933C38.9809 15.025 39.2344 14.6715 39.2344 14.0993C39.2344 13.2242 38.7611 12.8539 37.7977 12.8539H36.5976V17.3643H37.3413V15.513H37.916L38.5583 17.3643L39.3866 17.3475ZM37.3582 14.8567V13.4935H37.7808C38.1188 13.4935 38.4738 13.5271 38.4738 14.1667C38.4738 14.7389 38.1188 14.8567 37.7808 14.8567H37.3582ZM42.3108 17.3475V16.6743H40.6712V15.3447H41.8375V14.6884H40.6712V13.5103H42.2432V12.8371H39.9275V17.3475C39.9105 17.3475 42.3108 17.3475 42.3108 17.3475ZM45.6576 17.3475V12.8539H44.9815V15.5972H44.9646L43.7137 12.8539H42.8517V17.3643H43.5109V14.234H43.5278L44.9646 17.3475H45.6576ZM46.7563 14.6042L47.1789 13.6618V12.8539H46.4182V13.6954H46.6887L46.3337 14.6042H46.7563ZM50.2214 13.9142C50.1031 13.2242 49.7481 12.7866 48.9537 12.7866C48.1592 12.7866 47.7367 13.2242 47.7367 13.931C47.7367 15.3784 49.5791 15.2606 49.5791 16.2535C49.5791 16.6069 49.3424 16.7921 49.0044 16.7921C48.5987 16.7921 48.4297 16.5565 48.3452 16.1021L47.6521 16.2199C47.8043 17.0277 48.1761 17.4148 48.9875 17.4148C49.7988 17.4148 50.3059 16.9772 50.3059 16.1862C50.3059 14.7052 48.4466 14.823 48.4466 13.8805C48.4466 13.5944 48.6494 13.4093 48.9537 13.4093C49.3086 13.4093 49.4777 13.6449 49.5622 14.032L50.2214 13.9142ZM54.8359 17.3475V12.8539H54.0922V14.6884H52.8076V12.8539H52.0638V17.3643H52.8076V15.3616H54.0922V17.3643H54.8359V17.3475ZM58.0306 17.3475V16.6743H56.391V15.3447H57.5573V14.6884H56.391V13.5103H57.963V12.8371H55.6473V17.3475H58.0306ZM61.3436 17.3475L60.2956 12.8371H59.2983L58.2673 17.3475H59.0279L59.2645 16.1862H60.3463L60.583 17.3475H61.3436ZM59.7885 13.5776H59.8054L60.2111 15.5467H59.3829L59.7885 13.5776ZM64.0988 17.3475V16.6743H62.5775V12.8539H61.8338V17.3643H64.0988V17.3475ZM65.6032 17.3475V13.5271H66.5328V12.8539H63.9298V13.5271H64.8594V17.3643H65.6032V17.3475ZM69.7951 17.3475V12.8539H69.0514V14.6884H67.7668V12.8539H67.023V17.3643H67.7668V15.3616H69.0514V17.3643H69.7951V17.3475Z" fill="#666666"/>
<path d="M22.1116 4.65792C22.1116 4.27084 22.4328 3.95108 22.8216 3.95108H22.9737C23.3118 3.95108 23.5146 4.11938 23.7174 4.37182L26.4557 7.95653V4.62426C26.4557 4.23718 26.7769 3.91742 27.1656 3.91742C27.5544 3.91742 27.8756 4.23718 27.8756 4.62426V9.74047C27.8756 10.1276 27.5544 10.4473 27.1656 10.4473H27.1149C26.7769 10.4473 26.574 10.279 26.3712 10.0266L23.5315 6.30723V9.7573C23.5315 10.1444 23.2103 10.4473 22.8216 10.4473C22.4328 10.4473 22.1116 10.1276 22.1116 9.7573C22.1116 9.79096 22.1116 4.65792 22.1116 4.65792Z" fill="#666666"/>
<path d="M29.4138 9.72366V4.70843C29.4138 4.32135 29.7349 4.00159 30.1237 4.00159H33.7071C34.0621 4.00159 34.3494 4.28769 34.3494 4.64111C34.3494 4.99454 34.0621 5.26381 33.7071 5.26381H30.8336V6.57652H33.3015C33.6564 6.57652 33.9438 6.86262 33.9438 7.21605C33.9438 7.56947 33.6564 7.83874 33.3015 7.83874H30.8336V9.18511H33.7578C34.1128 9.18511 34.4002 9.47122 34.4002 9.82464C34.4002 10.1781 34.1128 10.4473 33.7578 10.4473H30.1237C29.7349 10.4305 29.4138 10.1107 29.4138 9.72366Z" fill="#666666"/>
<path d="M35.6003 4.65796C35.6003 4.27087 35.9214 3.95111 36.3102 3.95111H36.4623C36.7666 3.95111 36.9863 4.10258 37.1046 4.32136L38.8288 7.11508L40.5529 4.32136C40.705 4.08575 40.9078 3.96794 41.1952 3.96794H41.3473C41.7361 3.96794 42.0572 4.2877 42.0572 4.67478V9.79099C42.0572 10.1781 41.7361 10.4978 41.3473 10.4978C40.9585 10.4978 40.6374 10.1781 40.6374 9.79099V6.5597L39.3866 8.47828C39.2344 8.69707 39.0485 8.8317 38.7949 8.8317C38.5414 8.8317 38.3555 8.69707 38.2033 8.47828L36.9694 6.59336V9.79099C36.9694 10.1781 36.6483 10.481 36.2595 10.481C35.8707 10.481 35.5665 10.1781 35.5665 9.79099L35.6003 4.65796Z" fill="#666666"/>
<path d="M43.325 7.23289C43.325 5.38163 44.7786 3.88379 46.7732 3.88379C48.7678 3.88379 50.2045 5.3648 50.2045 7.19923V7.21606C50.2045 9.05049 48.7509 10.5483 46.7563 10.5483C44.7617 10.5315 43.325 9.06731 43.325 7.23289ZM48.7171 7.23289C48.7171 6.1053 47.9057 5.1965 46.7563 5.1965C45.6069 5.1965 44.8124 6.08847 44.8124 7.19923V7.21606C44.8124 8.32681 45.6238 9.23561 46.7732 9.23561C47.9226 9.23561 48.7171 8.32681 48.7171 7.23289Z" fill="#666666"/>
<path d="M51.3708 7.67044V4.64111C51.3708 4.25403 51.692 3.93427 52.0807 3.93427C52.4695 3.93427 52.7907 4.25403 52.7907 4.64111V7.63678C52.7907 8.68022 53.3147 9.21877 54.1936 9.21877C55.0557 9.21877 55.5966 8.69705 55.5966 7.67044V4.64111C55.5966 4.25403 55.9177 3.93427 56.3065 3.93427C56.7122 3.93427 57.0164 4.25403 57.0164 4.64111V7.61995C57.0164 9.57219 55.9177 10.5315 54.1767 10.5315C52.4357 10.5315 51.3708 9.57219 51.3708 7.67044Z" fill="#666666"/>
<path d="M58.4532 4.69159C58.4532 4.3045 58.7743 3.98474 59.1631 3.98474H61.4112C62.2395 3.98474 62.8649 4.22036 63.2875 4.6411C63.6424 4.99452 63.8453 5.49941 63.8453 6.10527V6.13893C63.8453 7.14871 63.3382 7.77141 62.5437 8.09117L63.541 9.28608C63.6762 9.45437 63.7776 9.60584 63.7776 9.82462C63.7776 10.2117 63.4396 10.481 63.1015 10.481C62.7804 10.481 62.5606 10.3295 62.3916 10.1107L61.0055 8.36045H59.873V9.77413C59.873 10.1612 59.5519 10.481 59.1631 10.481C58.7743 10.481 58.4532 10.1612 58.4532 9.77413V4.69159ZM61.3098 7.11505C62.0028 7.11505 62.3916 6.7448 62.3916 6.20625V6.18942C62.3916 5.58356 61.969 5.26379 61.276 5.26379H59.8561V7.11505H61.3098Z" fill="#666666"/>
<path d="M64.9947 9.7405C64.8426 9.62269 64.7242 9.42074 64.7242 9.20195C64.7242 8.8317 65.0116 8.5456 65.3835 8.5456C65.5694 8.5456 65.7046 8.61292 65.7891 8.68023C66.2793 9.03366 66.8202 9.25244 67.4456 9.25244C68.0203 9.25244 68.3753 9.01683 68.3753 8.64657V8.62974C68.3753 8.27632 68.1556 8.0912 67.0738 7.80509C65.7722 7.4685 64.9271 7.11508 64.9271 5.83603V5.8192C64.9271 4.65795 65.8737 3.88379 67.1921 3.88379C67.9696 3.88379 68.6626 4.08574 69.2374 4.456C69.3895 4.54014 69.5585 4.7421 69.5585 5.01137C69.5585 5.38163 69.2543 5.66773 68.8993 5.66773C68.7641 5.66773 68.6458 5.63407 68.5443 5.56675C68.071 5.29748 67.6316 5.12918 67.1921 5.12918C66.6512 5.12918 66.3638 5.38163 66.3638 5.68456V5.70139C66.3638 6.12213 66.6343 6.25677 67.7668 6.54287C69.0683 6.87946 69.8121 7.35069 69.8121 8.47828V8.49511C69.8121 9.77416 68.8317 10.4978 67.4456 10.4978C66.5836 10.5147 65.7215 10.2622 64.9947 9.7405Z" fill="#666666"/>
<path d="M70.0994 16.7585C70.0994 16.4219 70.3698 16.1526 70.7248 16.1526C71.0628 16.1526 71.3502 16.4219 71.3502 16.7585C71.3502 17.095 71.0797 17.3643 70.7248 17.3643C70.3698 17.3643 70.0994 17.0782 70.0994 16.7585ZM71.2657 16.7585C71.2657 16.4555 71.029 16.2199 70.7248 16.2199C70.4205 16.2199 70.1839 16.4724 70.1839 16.7585C70.1839 17.0614 70.4205 17.297 70.7248 17.297C71.029 17.297 71.2657 17.0446 71.2657 16.7585ZM70.4543 16.4219H70.7586C70.9107 16.4219 71.0121 16.4892 71.0121 16.6238C71.0121 16.7248 70.9614 16.7921 70.8769 16.8258L71.0459 17.0446H70.86L70.7248 16.8426H70.6234V17.0446H70.4712L70.4543 16.4219ZM70.7417 16.7248C70.8093 16.7248 70.8431 16.6911 70.8431 16.6406C70.8431 16.5902 70.7924 16.5565 70.7417 16.5565H70.6065V16.7248H70.7417Z" fill="#666666"/>
</g>
<defs>
<clipPath id="clip0_2032_966">
<rect width="71.1111" height="16.8296" fill="white" transform="translate(0.222229 0.585205)"/>
</clipPath>
</defs>
</svg>
