<svg width="79" height="14" viewBox="0 0 79 14" fill="none" xmlns="http://www.w3.org/2000/svg">
<g clip-path="url(#clip0_2032_994)">
<path d="M8.60728 6.33385L8.57584 6.415C9.09993 6.64534 10.2765 7.55885 10.2765 9.39895C10.2765 11.1317 8.8143 12.8776 6.51614 12.8776C3.6572 12.8776 2.6719 11.2076 2.6719 9.67379C2.6719 7.70804 4.04765 6.39929 4.04765 4.60892C4.04016 3.97571 3.81785 3.36376 3.41707 2.8731C3.01629 2.38244 2.46074 2.04208 1.84121 1.90765L1.79404 1.9888C2.01871 2.20655 2.19698 2.46743 2.31812 2.75577C2.43925 3.0441 2.50076 3.35393 2.49895 3.66662C2.49895 5.60095 0.866394 6.97514 0.866394 9.19478C0.866394 11.2391 2.29717 13.3226 6.44015 13.3226C10.1324 13.3226 12.0794 11.5165 12.0794 9.59526C12.0768 7.94624 10.895 6.55111 8.60728 6.33385Z" fill="#666666"/>
<path d="M24.8281 12.9928L19.9199 6.67153V12.3698L20.9209 12.608V12.8698H18.6385V12.608L19.4561 12.3698V6.16112C19.2571 5.97584 19.0175 5.8396 18.7564 5.76326C18.6568 5.74232 18.5232 5.71876 18.5232 5.71876V5.45701H20.4597L24.6525 10.9014V5.96219L23.6515 5.72138V5.45963H25.9339V5.72138L25.1163 5.96219V11.6134C25.1163 12.1369 25.153 12.8986 25.1609 12.9954L24.8281 12.9928ZM35.0898 8.96708C35.0898 11.5846 33.2555 13.1027 31.2508 13.1027C29.2462 13.1027 27.404 11.5636 27.404 9.17125C27.404 6.77885 29.2383 5.22405 31.2325 5.22405C31.7345 5.2075 32.2346 5.29227 32.703 5.47328C33.1715 5.65429 33.5985 5.92782 33.9586 6.27751C34.3187 6.62721 34.6045 7.04587 34.7989 7.50845C34.9933 7.97104 35.0922 8.46803 35.0898 8.9697V8.96708ZM33.8137 9.35971C33.8137 7.43584 32.6607 5.56956 31.0936 5.56956C29.427 5.56956 28.6749 7.17933 28.6749 8.90165C28.6749 10.624 29.6262 12.7598 31.4159 12.7598C33.0983 12.7598 33.8137 11.0585 33.8137 9.35971ZM36.6752 5.95695L35.8891 5.71614V5.45439H38.9V5.71614L37.9566 5.95695L40.0347 11.616L42.1127 5.95695L41.1693 5.71614V5.45439H43.3968V5.71614L42.6106 5.95695L40.0085 13.0111H39.3429L36.6752 5.95695ZM54.4683 9.08487H53.9913V5.8444C55.5636 5.8444 56.4991 6.20562 56.4991 7.48819C56.4913 8.44096 55.6737 9.08487 54.4683 9.08487ZM67.9401 12.608L68.9883 12.3698V5.95957L67.9401 5.71876V5.45701H71.2079V5.71876L70.1597 5.95957V12.3698L71.2079 12.608V12.8698H67.9401V12.608ZM73.2099 10.8334H73.4169L74.1114 12.43C74.5242 12.6372 74.9781 12.7498 75.4399 12.7598C76.3414 12.7598 77.1642 12.2363 77.1642 11.2993C77.1642 10.5873 76.703 10.1633 75.9562 9.77328L75.2172 9.39112C74.3341 8.93305 73.451 8.28391 73.451 7.23953C73.451 6.10353 74.2371 5.22667 75.9195 5.22667C76.5107 5.23267 77.0974 5.32888 77.6595 5.51198L77.8351 7.22906H77.6123L76.9703 5.85225C76.6379 5.66684 76.2635 5.56952 75.8828 5.56956C75.0311 5.56956 74.452 6.09306 74.452 6.81811C74.452 7.47511 74.8896 7.88867 75.6391 8.27606L76.5143 8.73151C77.7093 9.34924 78.2753 9.92247 78.2753 10.9826C78.2753 12.2913 77.0463 13.1054 75.5185 13.1054C74.7993 13.1163 74.0832 13.0093 73.3986 12.7886L73.2099 10.8334ZM42.9172 12.608L43.7584 12.3698L46.3553 5.45178L47.2227 5.22929L49.9034 12.3672L50.7446 12.608V12.8698H47.5633V12.608L48.6403 12.3672L47.8804 10.3151H45.0241L44.2694 12.3672L45.3464 12.6054V12.8672H42.9172V12.608ZM45.2232 9.76804H47.6943L46.468 6.45951L45.2232 9.76804ZM55.9672 9.24454C56.2292 9.1791 57.6993 8.8048 57.6993 7.41229C57.6993 6.29461 56.8424 5.42822 54.7303 5.42822C53.4201 5.42822 52.1098 5.45701 51.9447 5.46224V5.724L52.8069 5.96481V12.3672L51.9447 12.608V12.8698H54.995V12.608L53.994 12.3672V9.47226H54.8561L57.0599 12.875H59.0122V12.6133L58.0243 12.3515L55.9672 9.24454ZM62.4083 5.84178V12.3698L61.3601 12.608V12.8698H64.6279V12.608L63.5797 12.3698V5.8444H65.3432L65.925 7.09557H66.1503L65.9826 5.46486H60.0053L59.8376 7.09557H60.063L60.6395 5.85749L62.4083 5.84178ZM6.48996 10.5533L7.53816 0.661743H5.36316L6.41135 10.5533H6.48996Z" fill="#666666"/>
</g>
<defs>
<clipPath id="clip0_2032_994">
<rect width="77.4193" height="12.6452" fill="white" transform="translate(0.86377 0.677429)"/>
</clipPath>
</defs>
</svg>
