<svg width="78" height="24" viewBox="0 0 78 24" fill="none" xmlns="http://www.w3.org/2000/svg">
<g clip-path="url(#clip0_2032_998)">
<path d="M37.0302 6.39014H40.4972V17.6089H37.9281V10.0646L34.6415 17.6089L31.1825 10.0551V17.6089H28.7853V6.39014H32.2119L34.6824 12.1969L37.0302 6.39014Z" fill="#666666"/>
<path d="M41.7748 6.39014V17.6089H48.231V15.707H44.2777V12.8528H48.0676V10.9329H44.2777V8.359H48.231V6.39014H41.7748Z" fill="#666666"/>
<path d="M57.8601 12.0015C57.8601 16.1776 62.2071 19.5193 66.7872 17.2842V14.8806C63.2629 17.3561 60.195 14.875 60.2454 12.0974C60.2797 10.2514 61.5169 8.49589 63.9102 8.359C65.0871 8.29202 65.8843 8.58533 66.7872 9.4521V6.95267C63.4777 4.98628 57.8601 7.15051 57.8601 12.0015Z" fill="#666666"/>
<path d="M67.8435 17.6089H70.2233V6.49805H67.8435V17.6089Z" fill="#666666"/>
<path d="M73.2095 11.5928L76.8055 6.52252H74.0262L70.4635 11.5833L74.5997 17.6089H77.3287L73.2095 11.5928Z" fill="#666666"/>
<path d="M49.3435 6.39008V17.6089H51.8551V11.5816L56.0067 17.6089H58.684L55.3973 12.8981C56.9205 12.3206 57.4147 11.04 57.4147 9.7601C57.4147 8.48114 56.3439 6.39008 53.7499 6.39008H49.3435ZM51.8551 8.25695H52.9514C54.8049 8.25695 54.9038 9.47186 54.9038 9.9255C54.9038 10.7923 54.1704 11.5304 53.2236 11.5304H51.8551V8.25695Z" fill="#666666"/>
<path d="M6.25143 6.39039C6.25143 3.29194 8.75676 0.780518 11.8466 0.780518C14.9374 0.780518 17.4417 3.29194 17.4417 6.39039H6.25143ZM6.25143 17.6097C6.25143 14.5117 8.75676 11.9998 11.8466 11.9998C8.75676 11.9998 6.25143 9.48884 6.25143 6.39039C3.16163 6.39039 0.656799 8.90183 0.656799 11.9998C0.656799 15.0987 3.16163 17.6097 6.25143 17.6097ZM6.25143 17.6097C6.25143 20.7086 8.75676 23.2195 11.8466 23.2195C14.9374 23.2195 17.4417 20.7086 17.4417 17.6097H6.25143ZM11.8466 11.9998C14.9374 11.9998 17.4417 14.5117 17.4417 17.6097C20.532 17.6097 23.0373 15.0987 23.0373 11.9998C23.0373 8.90183 20.532 6.39039 17.4417 6.39039C17.4417 9.48884 14.9374 11.9998 11.8466 11.9998Z" fill="#666666"/>
</g>
<defs>
<clipPath id="clip0_2032_998">
<rect width="77.4193" height="23.1884" fill="white" transform="translate(0.283081 0.405823)"/>
</clipPath>
</defs>
</svg>
