<svg width="78" height="32" viewBox="0 0 78 32" fill="none" xmlns="http://www.w3.org/2000/svg">
<g clip-path="url(#clip0_2032_982)">
<path d="M0.763245 17.3183C0.799232 17.2153 0.83522 17.1175 0.88663 17.0196C2.09992 14.5632 7.28726 13.5487 14.7212 14.4499L16.2173 8.9398C8.56738 7.96651 2.98419 9.06339 2.05365 12.5497L0.763245 17.3183Z" fill="#666666"/>
<path d="M28.6793 11.5816C28.6484 11.664 28.6176 11.7464 28.5816 11.8288C27.4197 14.3212 22.2118 15.3512 14.7213 14.4448L13.2252 19.955C20.8751 20.9282 26.4583 19.8314 27.3889 16.345L28.6793 11.5816Z" fill="#666666"/>
<path d="M5.65753 5.77277C16.9473 6.58642 28.4787 12.179 27.3888 16.3553L28.4016 12.627C28.7255 11.4528 28.8849 10.8452 28.8849 10.356C28.8849 6.10235 17.7545 0.911492 7.15358 0.262634L5.65753 5.77277Z" fill="#666666"/>
<path d="M23.785 23.122C12.4952 22.3135 0.963748 16.7209 2.0588 12.5446L1.046 16.2729C0.722117 17.447 0.562744 18.0547 0.562744 18.5439C0.562744 22.7975 11.6932 27.9884 22.294 28.6372L23.785 23.122Z" fill="#666666"/>
<path d="M64.9649 21.8243C63.5357 21.8449 62.7748 20.9334 62.7748 19.3164C62.7748 19.2083 62.7799 19.1053 62.7851 19.0023H68.3991C68.5122 18.5749 68.5842 18.1114 68.5842 17.684C68.5842 15.7116 67.3761 14.2079 64.9084 14.2079C62.3841 14.2079 60.1426 16.7004 60.1426 19.3164C60.1426 21.8243 61.7774 23.3486 64.5022 23.3486C65.7104 23.3486 66.8979 22.9418 67.7308 22.3084L67.2115 21.0055C66.5638 21.5102 65.7669 21.8088 64.9649 21.8243ZM64.9495 15.619C65.7823 15.619 66.209 16.1597 66.209 17.3492C66.209 17.4625 66.2039 17.581 66.1885 17.7046H62.9856C63.3352 16.448 64.0806 15.619 64.9495 15.619Z" fill="#666666"/>
<path d="M42.7401 13.6517C42.7401 11.6073 41.1463 10.1191 38.73 10.1191H34.0568L30.53 23.1271H33.481L34.7817 18.3328H37.3419C40.2724 18.3328 42.7401 16.4377 42.7401 13.6517ZM36.2109 16.8085H35.1981L36.5965 11.6434H37.6607C39.0025 11.6434 39.7582 12.5549 39.7582 13.7599C39.7531 15.691 38.2416 16.8085 36.2109 16.8085Z" fill="#666666"/>
<path d="M46.5856 14.45L46.9146 13.2398C47.0791 12.6064 47.3619 11.5301 47.7475 10.2839C48.1536 9.00162 48.8991 8.20343 49.9016 8.20343C50.3849 8.20343 50.683 8.42486 50.683 8.79564C50.6625 9.20246 50.3283 9.44449 50.3283 10.0985C50.3283 10.8607 50.9761 11.4529 51.8141 11.4529C52.8526 11.4529 53.6854 10.6186 53.6854 9.59383C53.6854 8.01289 52.3333 6.97266 50.2717 6.97266C47.2488 6.97266 45.2643 8.90378 44.0202 13.42L38.9717 31.7992H41.8301L46.1897 15.8713H49.1613L47.2077 23.1168H50.0661L52.4053 14.4397H46.5856V14.45Z" fill="#666666"/>
<path d="M61.0526 14.45H53.4849L53.1096 15.8816H56.7752L51.0892 23.1271H59.1041L59.4743 21.6955H55.3511L61.0526 14.45Z" fill="#666666"/>
<path d="M76.0439 14.3006C75.0209 14.3006 73.931 14.9649 73.0775 16.3399L73.5762 14.4499H70.7178L68.3786 23.1271H71.237L72.2961 19.2237C72.7228 17.6273 73.7613 16.0669 74.4502 16.0669C75.1905 16.0669 74.9129 17.4625 76.193 17.4625C77.1184 17.4625 77.6788 16.6076 77.6788 15.8249C77.6737 14.9134 76.9539 14.3006 76.0439 14.3006Z" fill="#666666"/>
</g>
<defs>
<clipPath id="clip0_2032_982">
<rect width="77.4193" height="32" fill="white" transform="translate(0.444458)"/>
</clipPath>
</defs>
</svg>
