<svg width="72" height="22" viewBox="0 0 72 22" fill="none" xmlns="http://www.w3.org/2000/svg">
<g clip-path="url(#clip0_2032_943)">
<path d="M18.3982 21.2224H12.1469L7.17941 14.3037H5.50828V21.2108H-0.00285339V0.454712H7.88659C12.4366 0.454712 16.1533 3.56525 16.1533 7.39072C16.1533 9.72579 14.7289 11.8115 12.5672 13.0857L18.3968 21.2253M10.6508 7.38784C10.6526 6.93179 10.5651 6.47984 10.3931 6.05782C10.221 5.6358 9.96792 5.25198 9.6482 4.9283C9.32848 4.60462 8.94842 4.34743 8.52973 4.17143C8.11104 3.99542 7.66194 3.90405 7.20809 3.90254H5.50828V10.8443H7.2124C8.12326 10.8405 8.99569 10.475 9.63951 9.82756C10.2833 9.18009 10.6463 8.30312 10.6493 7.38784H10.6508Z" fill="#666666"/>
<path d="M33.0941 13.0828C33.1017 14.7656 32.6124 16.4129 31.6879 17.8161C30.7635 19.2193 29.4455 20.3154 27.9008 20.9656C26.3561 21.6157 24.6542 21.7908 23.0105 21.4686C21.3668 21.1464 19.8551 20.3414 18.6669 19.1555C17.4787 17.9696 16.6673 16.4561 16.3355 14.8066C16.0037 13.1572 16.1664 11.4458 16.8029 9.8893C17.4394 8.33276 18.5213 7.00099 19.9114 6.06255C21.3015 5.12411 22.9375 4.62119 24.6122 4.61747C25.7227 4.61216 26.8234 4.82707 27.8511 5.2499C28.8788 5.67274 29.8134 6.29517 30.6013 7.08155C31.3892 7.86793 32.015 8.80281 32.4427 9.83261C32.8705 10.8624 33.0918 11.9669 33.0941 13.0828ZM24.6122 8.6332C23.1519 8.6332 21.9183 10.6267 21.9183 13.0828C21.9183 15.5389 23.1519 17.5295 24.6122 17.5295C26.0997 17.5295 27.3377 15.5404 27.3377 13.0828C27.3377 10.6252 26.104 8.6332 24.6122 8.6332Z" fill="#666666"/>
<path d="M46.0256 4.962L39.6782 11.3431V4.9447H34.1656V21.2051H39.6782V14.6078L46.3067 21.2051H53.238L44.8178 12.7398L51.7949 5.7317V15.3891C51.7949 18.5962 53.7085 21.5496 58.5368 21.5496C60.8319 21.5496 62.9305 20.2423 63.9518 19.0618L66.432 21.208H67.6054V4.962H62.1086V15.4842C61.4875 16.5725 60.621 17.2586 59.287 17.2586C57.9286 17.2586 57.3075 16.4485 57.3075 13.867V4.962H46.0256Z" fill="#666666"/>
<path d="M70.0224 6.89348C69.8071 6.89348 69.5966 6.82932 69.4175 6.70911C69.2385 6.5889 69.0989 6.41803 69.0165 6.21813C68.9341 6.01822 68.9126 5.79825 68.9546 5.58603C68.9966 5.37381 69.1003 5.17888 69.2525 5.02587C69.4048 4.87287 69.5988 4.76868 69.81 4.72647C70.0212 4.68425 70.2401 4.70592 70.439 4.78872C70.638 4.87153 70.808 5.01175 70.9277 5.19166C71.0473 5.37157 71.1111 5.58309 71.1111 5.79946C71.1111 5.94313 71.083 6.0854 71.0283 6.21813C70.9736 6.35086 70.8934 6.47147 70.7923 6.57305C70.6912 6.67464 70.5711 6.75523 70.439 6.81021C70.307 6.86519 70.1654 6.89348 70.0224 6.89348ZM70.0224 4.81355C69.8283 4.81355 69.6386 4.87137 69.4773 4.9797C69.3159 5.08804 69.1902 5.24202 69.1159 5.42217C69.0417 5.60232 69.0222 5.80056 69.0601 5.99181C69.098 6.18306 69.1914 6.35873 69.3286 6.49661C69.4658 6.6345 69.6407 6.72839 69.831 6.76643C70.0213 6.80448 70.2186 6.78495 70.3979 6.71033C70.5772 6.63571 70.7304 6.50934 70.8382 6.34721C70.946 6.18508 71.0036 5.99446 71.0036 5.79946C71.0032 5.5381 70.8997 5.28755 70.7158 5.10274C70.5318 4.91793 70.2825 4.81393 70.0224 4.81355Z" fill="#666666"/>
<path d="M69.5533 5.24451H70.0454C70.1031 5.24102 70.161 5.24902 70.2156 5.26807C70.2703 5.28712 70.3206 5.31683 70.3638 5.3555C70.394 5.38735 70.4177 5.42488 70.4334 5.46594C70.4492 5.507 70.4567 5.55078 70.4556 5.59477C70.4583 5.67286 70.4334 5.74938 70.3853 5.81082C70.3373 5.87227 70.2692 5.9147 70.1931 5.93062L70.4915 6.3515H70.262L69.9894 5.96377H69.747V6.3515H69.5533V5.24451ZM70.031 5.79513C70.1745 5.79513 70.2577 5.72161 70.2577 5.60919C70.2577 5.48955 70.173 5.42469 70.0296 5.42469H69.7427V5.79801L70.031 5.79513Z" fill="#666666"/>
</g>
<defs>
<clipPath id="clip0_2032_943">
<rect width="71.1111" height="21.0963" fill="white" transform="translate(0 0.451843)"/>
</clipPath>
</defs>
</svg>
